# AST/ASF file generated using VICON BodyLanguage
# -----------------------------------------------
:version 1.10
:name VICON
:units
  mass 1.0
  length 0.45
  angle deg
:documentation
   .ast/.asf automatically generated from VICON data using
   VICON BodyBuilder and BodyLanguage model FoxedUp or BRILLIANT.MOD
:root
   order TX TY TZ RX RY RZ
   axis XYZ
   position 0 0 0  
   orientation 0 -0 0 
:bonedata
  begin
     id 1 
     name lhipjoint
     direction 0.432694 -0.693742 0.575759 
     length 2.19277 
     axis 0 -0 0  XYZ
  end
  begin
     id 2 
     name lfemur
     direction 0.34202 -0.939693 0  
     length 6.69022  
     axis 0 -0 20  XYZ
    dof rx ry rz
    limits (-160.0 20.0)
           (-70.0 70.0)
           (-60.0 70.0)
  end
  begin
     id 3 
     name ltibia
     direction 0.34202 -0.939693 0   
     length 6.50337   
     axis 0 -0 20   XYZ
    dof rx
    limits (-10.0 170.0)
  end
  begin
     id 4 
     name lfoot
     direction 0.158999 -0.435969 0.885805   
     length 2.70564   
     axis -90 -1.13533e-015 20   XYZ
    dof rx rz
    limits (-45.0 90.0)
           (-70.0 20.0)
  end
  begin
     id 5 
     name ltoes
     direction -0.00592919 0.00964381 0.999936   
     length 1.29929   
     axis -90 -1.13533e-015 20   XYZ
    dof rx
    limits (-90.0 20.0)
  end
  begin
     id 6 
     name rhipjoint
     direction -0.414359 -0.700339 0.581234   
     length 2.17212  
     axis 0 -0 0  XYZ 
  end
  begin
     id 7 
     name rfemur
     direction -0.34202 -0.939693 0   
     length 7.17659   
     axis 0 -0 -20   XYZ
    dof rx ry rz
    limits (-160.0 20.0)
           (-70.0 70.0)
           (-70.0 60.0)
  end
  begin
     id 8 
     name rtibia
     direction -0.34202 -0.939693 0   
     length 6.36669   
     axis 0 -0 -20   XYZ
    dof rx
    limits (-10.0 170.0)
 end
 begin
     id 9 
     name rfoot
     direction -0.137064 -0.37658 0.916188   
     length 2.22351  
     axis -90 1.13533e-015 -20   XYZ
    dof rx rz
    limits (-45.0 90.0)
           (-20.0 70.0)
  end
  begin
     id 10 
     name rtoes
     direction -0.000784077 -0.00289101 0.999996   
     length 1.09522   
     axis -90 1.13533e-015 -20   XYZ
    dof rx
    limits (-90.0 20.0)
  end
  begin
     id 11 
     name lowerback
     direction -0.0176242 0.984912 -0.172157   
     length 1.65301   
     axis 0 -0 0   XYZ
    dof rx ry rz
    limits (-20.0 45.0)
           (-30.0 30.0)
           (-30.0 30.0)
  end
  begin
     id 12 
     name upperback
     direction -0.00218128 0.998776 -0.0494072   
     length 1.67776   
     axis 0 -0 0   XYZ
    dof rx ry rz
    limits (-20.0 45.0)
           (-30.0 30.0)
           (-30.0 30.0)
  end
  begin
     id 13 
     name thorax
     direction 0.00544186 0.999658 0.0255711   
     length 1.72293   
     axis 0 -0 0   XYZ
    dof rx ry rz
    limits (-20.0 45.0)
           (-30.0 30.0)
           (-30.0 30.0)
  end
  begin
     id 14 
     name lowerneck
     direction -0.105325 0.983841 0.144785   
     length 2.14226   
     axis 0 -0 0   XYZ
    dof rx ry rz
    limits (-20.0 45.0)
           (-30.0 30.0)
           (-30.0 30.0)
  end
  begin
     id 15 
     name upperneck
     direction 0.0547957 0.988053 -0.144041   
     length 2.17508   
     axis 0 -0 0   XYZ
    dof rx ry rz
    limits (-20.0 45.0)
           (-30.0 30.0)
           (-30.0 30.0)
  end
  begin
     id 16
     name head
     direction 0.0247488 0.997534 -0.0656813  
     length 2.20048  
     axis 0 -0 0   XYZ
    dof rx ry rz
    limits (-20.0 45.0)
           (-30.0 30.0)
           (-30.0 30.0)
  end
  begin
     id 17 
     name lclavicle
     direction 0.820559 0.567247 -0.0701026  
     length 4.09615  
     axis 0 -0 0   XYZ
    dof ry rz
    limits (-20.0 10.0)
           (0.0 20.0)
  end
  begin
     id 18 
     name lhumerus
     direction 0.999977 -0.0067566 -9.96392e-005   
     length 4.59333   
     axis -180 -30 -90   XYZ
    dof rx ry rz
    limits (-60.0 90.0)
           (-90.0 90.0)
           (-90.0 90.0)
  end
  begin
     id 19
     name lradius
     direction 1 -4.48982e-011 -2.53425e-027   
     length 2.81151   
     axis -180 -30 -90   XYZ
    dof rx
    limits (-10.0 170.0)
  end
  begin
     id 20
     name lwrist
     direction 1 -4.48939e-011 -7.39254e-028   
     length 1.40576   
     axis 2.56395e-016 90 90   XYZ
    dof ry
    limits (-180.0 0.0)
 end
  begin
     id 21 
     name lhand
     direction 1 -4.48939e-011 -1.47851e-027   
     length 0.895651   
     axis 9.43423e-016 90 90   XYZ
    dof rx rz
    limits (-90.0 90.0)
           (-45.0 45.0)
  end
  begin
     id 22 
     name lfingers
     direction 1 -4.48978e-011 -2.95702e-027   
     length 0.722097   
     axis 1.88685e-015 90 90   XYZ
    dof rx
    limits (0.0 90.0)
  end
  begin
     id 23
     name lthumb
     direction 0.707107 -6.34931e-011 0.707107   
     length 1.03679   
     axis -90 45 -9.86935e-015   XYZ
    dof rx rz
    limits (-45.0 45.0)
           (-45.0 45.0)
  end
  begin
     id 24 
     name rclavicle
     direction -0.831414 0.553102 -0.0531864   
     length 4.24872  
     axis 0 -0 0   XYZ 
    dof ry rz
    limits (-10.0 20.0)
           (-20.0 0.0)
  end
  begin
     id 25 
     name rhumerus
     direction -0.999916 -0.000939607 0.0129331  
     length 4.74834   
     axis -180 30 90   XYZ
    dof rx ry rz
    limits (-90.0 60.0)
           (-90.0 90.0)
           (-90.0 90.0)
  end
  begin
     id 26 
     name rradius
     direction -1 -4.48956e-011 -1.31752e-027   
     length 2.79907   
     axis -180 30 90   XYZ
    dof rx
    limits (-10.0 170.0)
  end
  begin
     id 27 
     name rwrist
     direction -1 -4.4897e-011 -7.39254e-028   
     length 1.39954   
     axis 2.56395e-016 -90 -90   XYZ
    dof ry
    limits (-180.0 0.0)
  end
  begin
     id 28
     name rhand
     direction -0.999997 -0.00250697 0.000800838   
     length 0.953304   
     axis 9.43423e-016 -90 -90   XYZ
    dof rx rz
    limits (-90.0 90.0)
           (-45.0 45.0)
  end
  begin
     id 29
     name rfingers
     direction -1 -4.48954e-011 -2.95702e-027   
     length 0.763342   
     axis 1.88685e-015 -90 -90   XYZ
    dof rx
    limits (0.0 90.0)
  end
  begin
     id 30
     name rthumb
     direction -0.709701 -0.00217037 0.7045   
     length 1.10115   
     axis -90 -45 9.86935e-015   XYZ
    dof rx rz
    limits (-45.0 45.0)
           (-45.0 45.0)
  end
:hierarchy
  begin
    root lhipjoint rhipjoint lowerback
    lhipjoint lfemur
    lfemur ltibia
    ltibia lfoot
    lfoot ltoes
    rhipjoint rfemur
    rfemur rtibia
    rtibia rfoot
    rfoot rtoes
    lowerback upperback
    upperback thorax
    thorax lowerneck lclavicle rclavicle
    lowerneck upperneck
    upperneck head
    lclavicle lhumerus
    lhumerus lradius
    lradius lwrist
    lwrist lhand lthumb
    lhand lfingers
    rclavicle rhumerus
    rhumerus rradius
    rradius rwrist
    rwrist rhand rthumb
    rhand rfingers
  end

#!OML:ASF G:\ViconDB\ViconDB\414\test\team2\shane.ASF
:FULLY-SPECIFIED
:DEGREES
32
root 4.78986 16.3234 -31.7137 -4.46911 -5.19357 -4.91374
lowerback 9.46625 4.17758 5.77881
upperback 2.92739 6.06739 -0.42215
thorax -1.58606 3.0456 -4.28056
lowerneck -15.0999 -7.34679 -8.23962
upperneck 16.7904 -10.608 11.8566
head 8.84046 -4.40188 4.02871
rclavicle -2.3556e-014 9.14409e-015
rhumerus -9.51212 14.586 -100.533
rradius 38.4103
rwrist 36.1733
rhand -32.539 -13.1762
rfingers 7.12502
rthumb -5.76909 -43.0777
lclavicle -2.3556e-014 9.14409e-015
lhumerus -53.5014 -24.2 92.9583
lradius 32.9665
lwrist -9.27195
lhand -39.4476 6.55764
lfingers 7.12502
lthumb -12.4353 36.1677
rfemur 30.9017 -9.00427 20.3451
rtibia -8.26944e-014
rfoot -20.2289 -2.45054
rtoes -16.7781
lfemur -27.7709 8.75024 -7.90772
ltibia 35.926
lfoot -29.7529 -12.526
ltoes -12.7608
33
root 4.79399 16.2781 -31.5923 -4.5237 -4.95022 -4.9387
lowerback 9.55096 4.25413 5.78199
upperback 3.00008 6.17065 -0.486219
thorax -1.53731 3.1011 -4.36054
lowerneck -14.9441 -7.63849 -8.69869
upperneck 16.6349 -10.963 12.1436
head 8.84446 -4.57984 4.15321
rclavicle 2.59911e-014 -1.39149e-014
rhumerus -8.96723 14.8825 -100.011
rradius 38.1869
rwrist 35.9264
rhand -32.6156 -13.1379
rfingers 7.12502
rthumb -5.84312 -43.0373
lclavicle 2.59911e-014 -1.39149e-014
lhumerus -53.6656 -24.4685 93.1143
lradius 33.5123
lwrist -8.80901
lhand -39.2405 6.76528
lfingers 7.12502
lthumb -12.2356 36.3874
rfemur 31.465 -8.91011 20.2495
rtibia -9.22361e-014
rfoot -20.623 -2.45193
rtoes -17.262
lfemur -28.0359 8.74685 -8.15518
ltibia 36.291
lfoot -29.4056 -12.0205
ltoes -13.0683
34
root 4.80131 16.2345 -31.4682 -4.53195 -4.63817 -4.98162
lowerback 9.62868 4.30876 5.87261
upperback 3.09491 6.25076 -0.600995
thorax -1.44833 3.14792 -4.53723
lowerneck -14.8921 -7.91997 -8.9096
upperneck 16.4014 -11.3092 12.2578
head 8.81647 -4.75232 4.17467
rclavicle 7.99114e-014 8.74653e-015
rhumerus -8.45075 15.1333 -99.5597
rradius 37.8819
rwrist 36.0839
rhand -32.7541 -12.9306
rfingers 7.12502
rthumb -5.97684 -42.8263
lclavicle 7.99114e-014 8.74653e-015
lhumerus -53.3357 -24.596 92.9495
lradius 33.7082
lwrist -9.06319
lhand -38.8005 6.7519
lfingers 7.12502
lthumb -11.8113 36.3988
rfemur 31.9839 -8.87246 20.1504
rtibia -4.13472e-014
rfoot -20.9467 -2.35266
rtoes -17.5418
lfemur -28.3509 8.46828 -8.3331
ltibia 36.8533
lfoot -28.5782 -11.7328
ltoes -12.6767
35
root 4.8129 16.19 -31.3364 -4.55476 -4.50255 -4.88341
lowerback 9.5546 4.40445 5.88123
upperback 3.2036 6.36721 -0.776953
thorax -1.25849 3.21751 -4.71942
lowerneck -14.7318 -8.08571 -9.17735
upperneck 16.205 -11.53 12.5475
head 8.7834 -4.85657 4.28779
rclavicle -4.94974e-014 -3.97569e-015
rhumerus -8.08211 15.2774 -99.1774
rradius 37.6658
rwrist 36.4648
rhand -32.7476 -13.6641
rfingers 7.12502
rthumb -5.97053 -43.56
lclavicle -4.94974e-014 -3.97569e-015
lhumerus -52.9912 -24.7754 92.8173
lradius 33.6504
lwrist -8.96318
lhand -39.093 6.05779
lfingers 7.12502
lthumb -12.0933 35.6883
rfemur 32.5237 -8.63762 19.909
rtibia 3.18055e-015
rfoot -21.2115 -2.29941
rtoes -18.325
lfemur -28.5178 8.35131 -8.67458
ltibia 37.5523
lfoot -27.7148 -11.5022
ltoes -13.3345
36
root 4.82435 16.1525 -31.2048 -4.50083 -4.22574 -4.88011
lowerback 9.49684 4.47526 5.95568
upperback 3.30299 6.45791 -0.98069
thorax -1.07872 3.27474 -4.96633
lowerneck -14.7685 -8.31903 -9.32608
upperneck 16.1066 -11.8766 12.8634
head 8.83096 -4.99957 4.36656
rclavicle -1.40143e-013 3.73715e-014
rhumerus -7.73399 15.2763 -98.7483
rradius 37.2558
rwrist 36.891
rhand -33.0875 -13.6037
rfingers 7.12502
rthumb -6.29865 -43.49
lclavicle -1.40143e-013 3.73715e-014
lhumerus -52.323 -25.0081 92.5033
lradius 33.4607
lwrist -9.47142
lhand -38.8487 6.00674
lfingers 7.12502
lthumb -11.8578 35.651
rfemur 32.962 -8.57466 19.8128
rtibia 3.18055e-014
rfoot -21.3943 -2.37982
rtoes -18.7782
lfemur -28.702 7.80259 -8.80978
ltibia 38.3964
lfoot -26.8222 -11.8501
ltoes -12.6961
